<svg viewBox="0 0 160 160" width="160" height="160" fill="none" xmlns="http://www.w3.org/2000/svg">
  <ellipse cx="80" cy="148" rx="45" ry="8" fill="#E9D5FF" />
  <path d="M80 35 V20" stroke="#8B5CF6" stroke-width="4" stroke-linecap="round" />
  <circle cx="80" cy="16" r="7" fill="#C4B5FD" />
  <rect x="35" y="32" width="90" height="65" rx="20" fill="#8B5CF6" />
  <rect x="42" y="38" width="76" height="52" rx="14" fill="#DDD6FE" />
  <circle cx="62" cy="60" r="6" fill="#6D28D9" />
  <circle cx="98" cy="60" r="6" fill="#6D28D9" />
  <circle cx="64" cy="58" r="2" fill="#FFFFFF" />
  <circle cx="100" cy="58" r="2" fill="#FFFFFF" />
  <circle cx="50" cy="68" r="5" fill="#F472B6" opacity="0.6" />
  <circle cx="110" cy="68" r="5" fill="#F472B6" opacity="0.6" />
  <path d="M72 74 Q80 80 88 74" stroke="#6D28D9" stroke-width="4" stroke-linecap="round" fill="none" />
  <rect x="48" y="100" width="64" height="42" rx="14" fill="#7C3AED" />
  <rect x="58" y="108" width="44" height="14" rx="6" fill="#EDE9FE" />
  <text x="63" y="119" fill="#6D28D9" font-size="10" font-weight="bold" font-family="monospace">∑ π √</text>
  <path d="M48 112 Q35 120 40 132" stroke="#7C3AED" stroke-width="8" stroke-linecap="round" />
  <g transform="translate(110, 105)">
    <rect x="0" y="0" width="28" height="36" rx="6" fill="#F59E0B" />
    <rect x="4" y="4" width="20" height="9" rx="3" fill="#FFFBEB" />
    <circle cx="7" cy="18" r="2" fill="#FFFFFF" />
    <circle cx="14" cy="18" r="2" fill="#FFFFFF" />
    <circle cx="21" cy="18" r="2" fill="#FFFFFF" />
    <circle cx="7" cy="26" r="2" fill="#FFFFFF" />
    <circle cx="14" cy="26" r="2" fill="#EC4899" />
    <circle cx="21" cy="26" r="2" fill="#10B981" />
  </g>
</svg>
