<svg viewBox="0 0 160 160" width="160" height="160" fill="none" xmlns="http://www.w3.org/2000/svg">
  <ellipse cx="80" cy="148" rx="45" ry="8" fill="#FCE7F3" />
  <path d="M35 52 Q80 32 125 52 L138 60 H22 Z" fill="#D97706" />
  <path d="M50 52 C50 28 110 28 110 52 Z" fill="#F59E0B" />
  <rect x="50" y="46" width="60" height="8" fill="#991B1B" />
  <circle cx="80" cy="76" r="34" fill="#FDE68A" />
  <circle cx="66" cy="74" r="6" fill="#831843" />
  <circle cx="94" cy="74" r="6" fill="#831843" />
  <circle cx="68" cy="72" r="2" fill="#FFFFFF" />
  <circle cx="96" cy="72" r="2" fill="#FFFFFF" />
  <circle cx="56" cy="84" r="5" fill="#EC4899" opacity="0.6" />
  <circle cx="104" cy="84" r="5" fill="#EC4899" opacity="0.6" />
  <path d="M70 88 Q80 96 90 88" stroke="#831843" stroke-width="3.5" stroke-linecap="round" fill="none" />
  <path d="M48 108 L38 142 H122 L112 108 Z" fill="#EC4899" />
  <path d="M80 108 V142" stroke="#BE185D" stroke-width="3" />
  <rect x="54" y="116" width="18" height="14" rx="3" fill="#F472B6" />
  <rect x="88" y="116" width="18" height="14" rx="3" fill="#F472B6" />
  <g transform="translate(106, 95)">
    <circle cx="20" cy="20" r="18" fill="#38BDF8" stroke="#0284C7" stroke-width="2.5" />
    <path d="M10 14 Q16 8 26 12 Q20 22 12 20 Z" fill="#4ADE80" />
    <path d="M18 28 Q26 24 34 26 Q30 36 22 34 Z" fill="#4ADE80" />
    <path d="M20 38 V46 M10 46 H30" stroke="#475569" stroke-width="3" stroke-linecap="round" />
  </g>
</svg>
